<?xml version="1.0" standalone="no"?>
<!DOCTYPE svg PUBLIC "-//W3C//DTD SVG 20010904//EN"
 "http://www.w3.org/TR/2001/REC-SVG-20010904/DTD/svg10.dtd">
<svg version="1.0" xmlns="http://www.w3.org/2000/svg"
 width="3170.000000pt" height="1038.000000pt" viewBox="0 0 3170.000000 1038.000000"
 preserveAspectRatio="xMidYMid meet">

<g transform="translate(0.000000,1038.000000) scale(0.100000,-0.100000)"
fill="#000000" stroke="none">
<path d="M4982 10366 c-165 -32 -306 -88 -450 -181 -77 -50 -323 -293 -2184
-2153 -1878 -1879 -2102 -2106 -2154 -2186 -71 -111 -127 -236 -161 -363 -25
-90 -27 -114 -27 -293 0 -180 2 -203 27 -293 33 -124 81 -234 148 -345 50 -80
184 -218 1681 -1717 l1628 -1630 0 3566 c0 3524 0 3568 20 3631 47 154 182
274 345 308 36 7 388 10 1131 7 1051 -3 1083 -3 1212 -25 857 -139 1495 -652
1786 -1437 192 -516 203 -1187 27 -1708 -271 -805 -939 -1339 -1841 -1473 -99
-15 -227 -18 -927 -21 l-813 -4 0 -1888 0 -1888 22 -20 c41 -38 197 -131 275
-163 42 -18 120 -44 172 -59 l96 -26 13055 0 13055 0 72 23 c86 27 206 105
263 170 52 61 115 185 130 259 18 87 8 254 -20 328 -31 83 -101 186 -163 240
-61 54 -167 108 -252 130 -53 13 -1384 15 -12170 15 l-12110 0 1636 1638
c1746 1746 1693 1690 1780 1876 82 176 114 345 106 560 -9 254 -79 452 -234
663 -23 32 -984 999 -2135 2148 -1934 1932 -2100 2094 -2180 2144 -112 68
-222 115 -345 148 -82 21 -126 26 -263 29 -112 2 -188 -1 -238 -10z"/>
<path d="M4437 7844 c-4 -4 -7 -662 -7 -1461 l0 -1454 808 4 c784 3 810 4 899
25 273 63 476 170 664 350 205 195 342 444 394 715 52 274 32 618 -51 867 -88
264 -272 519 -493 686 -105 79 -295 175 -416 209 -202 58 -207 58 -1030 62
-418 3 -764 1 -768 -3z"/>
<path d="M26620 5503 c-19 -2 -89 -15 -156 -28 -698 -140 -1278 -698 -1463
-1406 -53 -204 -69 -330 -69 -549 0 -247 28 -442 95 -653 166 -524 530 -945
1015 -1177 279 -132 566 -189 893 -176 185 7 201 9 354 43 216 47 433 138 621
260 209 137 250 188 250 317 0 101 -30 164 -97 206 -40 26 -57 30 -115 30 -80
0 -91 -5 -243 -105 -192 -127 -337 -193 -525 -241 -141 -35 -396 -45 -540 -20
-297 51 -530 175 -756 400 -177 178 -298 373 -373 603 -124 380 -101 812 62
1173 172 380 514 691 888 804 135 41 247 56 415 56 355 0 568 -71 826 -277 46
-36 107 -77 136 -90 108 -50 237 -14 307 86 27 39 30 50 30 124 0 107 -18 142
-106 213 -290 231 -559 352 -890 399 -96 14 -462 19 -559 8z"/>
<path d="M10864 5441 c-49 -23 -107 -88 -122 -140 -9 -28 -12 -414 -12 -1477
0 -1215 2 -1454 15 -1536 68 -456 378 -747 769 -726 150 9 244 57 291 151 55
111 14 260 -88 318 -36 20 -59 24 -168 29 -115 5 -129 7 -166 32 -50 33 -97
103 -126 188 l-22 65 -5 1475 -5 1475 -22 40 c-27 51 -68 90 -115 109 -53 22
-172 21 -224 -3z"/>
<path d="M29144 5446 c-45 -20 -102 -74 -127 -120 l-22 -41 -3 -1754 c-1
-1188 1 -1765 8 -1792 15 -53 68 -119 120 -149 l45 -25 1115 0 1115 0 41 22
c48 25 101 83 120 129 18 43 18 165 0 208 -19 46 -72 104 -120 129 l-41 22
-947 3 -948 2 0 1601 c0 1463 -1 1603 -16 1632 -31 61 -56 88 -107 117 -45 26
-62 30 -127 30 -41 -1 -89 -7 -106 -14z"/>
<path d="M13226 4302 c-630 -79 -1103 -563 -1177 -1202 -14 -126 -7 -349 16
-470 102 -543 474 -948 975 -1061 128 -29 330 -35 470 -15 260 39 500 158 685
341 46 46 86 78 88 71 3 -6 5 -60 6 -120 2 -122 14 -162 64 -215 49 -51 100
-71 187 -71 87 0 138 20 187 71 65 69 63 39 63 781 0 370 -4 700 -9 733 -45
302 -177 563 -390 775 -260 257 -563 384 -940 392 -69 2 -170 -3 -225 -10z
m382 -458 c262 -54 483 -232 603 -488 69 -149 82 -214 83 -426 1 -164 -2 -195
-22 -269 -88 -323 -317 -558 -627 -642 -114 -31 -335 -32 -450 -1 -516 139
-792 708 -606 1249 79 229 257 424 477 524 145 66 373 88 542 53z"/>
<path d="M16742 4309 c-233 -30 -479 -141 -633 -286 l-36 -34 -5 68 c-6 80
-32 137 -82 181 -48 42 -98 55 -194 51 -70 -4 -86 -8 -124 -34 -50 -36 -84
-82 -98 -136 -7 -24 -9 -443 -8 -1216 l3 -1180 30 -49 c39 -62 109 -107 179
-114 121 -13 205 24 261 115 l30 48 5 806 5 806 23 65 c77 214 250 364 497
432 115 31 354 31 470 -1 284 -77 463 -265 528 -556 18 -85 20 -133 23 -805 3
-456 8 -729 15 -753 13 -49 73 -115 124 -138 55 -25 176 -25 230 0 49 23 99
74 119 123 23 55 24 1462 1 1613 -36 241 -122 439 -266 613 -164 199 -449 346
-739 382 -97 11 -265 11 -358 -1z"/>
<path d="M20115 4309 c-212 -10 -366 -47 -540 -129 -377 -179 -630 -512 -717
-942 -19 -96 -22 -144 -22 -318 0 -174 4 -221 23 -310 91 -425 330 -741 699
-925 203 -102 383 -140 657 -140 265 1 428 35 625 130 377 184 618 496 715
925 26 114 32 459 11 583 -61 360 -235 658 -499 855 -195 146 -399 230 -632
261 -115 15 -163 17 -320 10z m329 -473 c149 -42 253 -99 358 -195 122 -113
212 -265 259 -441 21 -75 23 -108 23 -280 0 -184 -1 -200 -27 -285 -71 -230
-184 -388 -361 -504 -288 -188 -684 -187 -973 1 -187 122 -315 309 -376 548
-18 71 -21 113 -21 250 1 144 4 177 26 260 45 168 111 289 223 408 119 128
257 205 445 248 79 18 347 12 424 -10z"/>
<path d="M23150 4308 c-451 -44 -777 -264 -856 -578 -23 -93 -16 -302 14 -384
70 -191 226 -337 480 -446 119 -51 250 -90 442 -130 499 -104 680 -218 680
-430 0 -205 -195 -332 -535 -346 -155 -7 -278 10 -411 57 -153 54 -234 101
-340 200 -104 97 -203 113 -315 53 -127 -70 -183 -205 -130 -319 68 -149 416
-338 746 -404 229 -46 517 -52 720 -16 247 44 471 164 598 320 117 145 174
325 164 515 -7 121 -24 187 -75 283 -109 210 -379 365 -807 462 -464 105 -583
147 -680 236 -52 48 -75 107 -75 191 0 72 17 114 64 162 137 137 523 178 799
85 77 -26 157 -74 245 -146 97 -80 155 -105 246 -104 88 1 120 11 164 54 47
45 62 78 63 139 2 72 -26 124 -115 216 -141 146 -338 248 -581 302 -113 25
-382 40 -505 28z"/>
</g>
</svg>
