<?xml version="1.0" standalone="no"?>
<!DOCTYPE svg PUBLIC "-//W3C//DTD SVG 20010904//EN"
 "http://www.w3.org/TR/2001/REC-SVG-20010904/DTD/svg10.dtd">
<svg version="1.0" xmlns="http://www.w3.org/2000/svg"
 width="3170.000000pt" height="1038.000000pt" viewBox="0 0 3170.000000 1038.000000"
 preserveAspectRatio="xMidYMid meet">

<g transform="translate(0.000000,1038.000000) scale(0.100000,-0.100000)"
fill="#000000" stroke="none">
<path d="M5043 10370 c-220 -28 -432 -119 -605 -260 -40 -32 -996 -983 -2124
-2112 -2208 -2210 -2109 -2107 -2198 -2299 -82 -179 -109 -303 -109 -509 0
-206 27 -330 109 -509 88 -190 27 -126 1755 -1856 l1609 -1610 0 3542 c0 2547
3 3557 11 3595 34 164 162 302 329 355 51 17 131 18 1115 18 1159 0 1162 -1
1435 -61 919 -205 1574 -904 1734 -1849 41 -240 46 -629 11 -855 -140 -911
-750 -1595 -1627 -1825 -307 -80 -283 -79 -1215 -82 l-833 -4 0 -1894 0 -1894
84 -55 c165 -110 339 -174 534 -196 70 -8 3790 -10 13067 -8 12405 3 12973 4
13029 21 205 61 369 236 412 436 63 298 -102 583 -396 684 l-65 22 -12125 3
-12125 2 1631 1633 c1734 1735 1680 1678 1773 1864 153 306 157 708 11 1021
-97 207 21 84 -2239 2343 -1815 1815 -2097 2094 -2172 2143 -139 91 -277 149
-431 180 -97 20 -289 28 -385 16z"/>
<path d="M4440 6385 l0 -1456 788 4 c759 4 791 5 886 25 576 124 978 530 1083
1092 25 133 24 474 -1 615 -104 585 -519 1024 -1085 1148 -92 20 -130 21 -883
24 l-788 4 0 -1456z"/>
<path d="M26672 5509 c-569 -55 -1086 -367 -1405 -848 -178 -269 -292 -583
-326 -903 -16 -142 -13 -388 5 -530 104 -809 665 -1462 1422 -1659 458 -118
970 -62 1382 153 122 63 280 169 341 229 138 134 81 380 -97 420 -68 15 -134
0 -205 -49 -30 -19 -83 -55 -119 -79 -151 -101 -361 -190 -540 -229 -119 -26
-420 -26 -538 -1 -428 94 -789 379 -992 785 -296 591 -192 1325 255 1800 197
209 454 356 730 417 39 9 142 18 231 22 383 14 613 -59 897 -284 103 -82 146
-103 217 -103 77 0 120 14 170 57 56 49 80 101 80 182 0 94 -25 139 -119 213
-174 139 -362 249 -532 312 -227 84 -576 122 -857 95z"/>
<path d="M10915 5461 c-78 -20 -155 -90 -175 -158 -8 -27 -10 -457 -8 -1533
l3 -1495 27 -99 c89 -324 294 -541 566 -602 110 -24 268 -16 342 18 74 33 114
69 140 124 19 38 22 57 18 119 -6 89 -39 152 -100 193 -38 25 -52 27 -167 33
-69 3 -138 10 -152 16 -60 26 -116 106 -155 223 -18 52 -19 129 -24 1530 -5
1351 -6 1478 -22 1505 -21 38 -74 88 -115 109 -38 19 -135 28 -178 17z"/>
<path d="M29185 5461 c-77 -19 -166 -100 -185 -170 -6 -23 -10 -643 -10 -1786
l0 -1750 24 -51 c27 -58 94 -120 145 -134 49 -14 2193 -13 2242 0 47 13 124
81 151 134 17 31 22 59 22 116 0 57 -5 85 -22 116 -27 53 -104 121 -151 134
-23 6 -372 10 -963 10 l-928 0 0 1578 c0 1786 6 1647 -80 1732 -67 67 -155 93
-245 71z"/>
<path d="M13295 4314 c-331 -34 -608 -157 -835 -371 -112 -105 -199 -225 -275
-378 -113 -228 -151 -416 -142 -700 4 -113 12 -201 26 -263 121 -565 513 -959
1041 -1047 135 -23 375 -16 495 14 244 60 472 190 622 355 l51 55 4 -122 c5
-136 18 -176 80 -233 56 -53 95 -68 178 -68 107 0 183 45 233 139 22 40 22 42
22 715 0 617 -2 684 -19 775 -54 293 -179 531 -385 736 -200 200 -421 317
-694 370 -96 19 -320 31 -402 23z m365 -483 c303 -87 526 -323 611 -647 27
-102 36 -301 20 -414 -57 -384 -315 -673 -678 -756 -105 -24 -281 -24 -386 0
-350 80 -599 346 -678 721 -7 33 -13 119 -13 190 0 72 6 157 13 190 81 386
330 649 691 730 96 22 321 14 420 -14z"/>
<path d="M16695 4304 c-222 -40 -437 -141 -577 -272 l-48 -45 0 54 c0 77 -16
125 -57 170 -71 78 -172 105 -277 75 -72 -21 -145 -89 -164 -152 -9 -32 -12
-319 -12 -1215 l0 -1174 24 -51 c75 -160 308 -192 425 -58 18 20 38 48 44 63
9 19 13 242 17 826 5 740 7 804 24 855 63 189 201 333 396 413 115 48 192 61
345 60 169 -1 255 -21 395 -89 176 -87 294 -237 352 -449 22 -78 22 -96 28
-830 5 -745 5 -750 27 -790 50 -94 126 -139 233 -139 107 0 183 45 233 139 22
40 22 40 22 785 0 813 -1 819 -60 1025 -126 433 -471 732 -925 801 -119 18
-340 17 -445 -2z"/>
<path d="M20027 4309 c-597 -66 -1049 -475 -1169 -1059 -28 -140 -35 -411 -14
-558 76 -513 390 -905 857 -1070 178 -63 271 -77 509 -77 238 0 331 14 509 77
425 150 743 520 836 972 67 328 29 691 -101 965 -183 388 -541 660 -969 735
-113 20 -343 28 -458 15z m382 -469 c107 -22 232 -77 326 -145 153 -109 267
-284 327 -501 29 -107 32 -410 5 -518 -46 -183 -117 -308 -246 -437 -85 -84
-110 -102 -201 -148 -154 -75 -233 -94 -410 -94 -117 0 -161 5 -225 22 -305
81 -532 303 -619 605 -113 389 5 819 289 1049 88 71 241 144 350 167 122 25
282 25 404 0z"/>
<path d="M23127 4309 c-295 -33 -577 -166 -713 -337 -100 -126 -138 -238 -138
-412 0 -187 53 -319 179 -446 162 -163 401 -269 786 -348 382 -79 558 -160
637 -294 24 -41 27 -57 27 -132 0 -74 -3 -91 -27 -131 -37 -62 -88 -105 -172
-145 -106 -49 -205 -67 -381 -67 -173 0 -261 15 -400 70 -120 48 -206 99 -287
173 -80 72 -135 100 -203 100 -93 0 -218 -80 -256 -165 -25 -54 -25 -145 0
-193 10 -20 43 -60 72 -88 185 -174 511 -305 859 -345 146 -16 447 -6 565 19
363 79 602 268 702 557 25 73 27 92 28 230 0 131 -3 159 -23 220 -97 289 -366
463 -895 581 -337 74 -455 110 -562 169 -107 60 -155 133 -155 240 0 103 50
176 157 230 157 78 434 95 648 40 94 -24 194 -76 280 -146 108 -87 125 -97
197 -115 114 -29 215 3 274 87 38 56 40 131 4 203 -76 150 -335 326 -580 394
-179 50 -440 71 -623 51z"/>
</g>
</svg>
